# xmcd
#
# Track frame offsets:
#	150
#	17410
#	35000
#	49400
#	66650
#	81307
#	100575
#	113910
#	129840
#	147517
#	170467
#	190395
#	209652
#	228800
#	247145
#	264375
#	281465
#
# Disc length: 4022 seconds
#
# Revision: 1
# Processed by: cddbd v1.5.2PL0 Copyright (c) Steve Scherf et al.
# Submitted via: audiograbber 1.83.01
#
DISCID=fc0fb411
DTITLE=Bob Van Der Houven - 1095 - Bob Van Der Houven - Alleen Op Reis (1997)
DYEAR=1900
DGENRE=A Cappella
TTITLE0=Niemand Zoals Jij
TTITLE1=Elisa
TTITLE2=Kom Maar Te Voorschijn
TTITLE3=Maar Dan Zie Ik Jou
TTITLE4=De Talentenjacht
TTITLE5=Allen Op Reis
TTITLE6=Schnabbels
TTITLE7=Kom Drink Nog Een Pilsje
TTITLE8=Vertrouwen (duet met Saskia Riemens)
TTITLE9=De Hokjesgeest
TTITLE10=Rene
TTITLE11=Kinderspel
TTITLE12=Omaás Verjaardag
TTITLE13=Leeg Van Binnen
TTITLE14=Stapelgek
TTITLE15=Je Was Toen Nog Maar Een Kind
TTITLE16=Utopie
EXTD=
EXTT0=
EXTT1=
EXTT2=
EXTT3=
EXTT4=
EXTT5=
EXTT6=
EXTT7=
EXTT8=
EXTT9=
EXTT10=
EXTT11=
EXTT12=
EXTT13=
EXTT14=
EXTT15=
EXTT16=
PLAYORDER=
